<?xml version="1.0" encoding="UTF-8" standalone="no"?>
<!DOCTYPE svg PUBLIC "-//W3C//DTD SVG 1.1//EN"
 "http://www.w3.org/Graphics/SVG/1.1/DTD/svg11.dtd">
<!-- Generated by graphviz version 2.38.0 (20140413.2041)
 -->
<!-- Title: %3 Pages: 1 -->
<svg width="183pt" height="343pt"
 viewBox="0.00 0.00 182.50 342.53" xmlns="http://www.w3.org/2000/svg" xmlns:xlink="http://www.w3.org/1999/xlink">
<g id="graph0" class="graph" transform="scale(1 1) rotate(0) translate(4 338.534)">
<title>%3</title>
<polygon fill="white" stroke="none" points="-4,4 -4,-338.534 178.5,-338.534 178.5,4 -4,4"/>
<!-- x -->
<g id="node1" class="node"><title>x</title>
<polygon fill="lightgray" stroke="black" points="20,-97.3259 0,-97.3259 0,-79.3259 20,-79.3259 20,-97.3259"/>
<text text-anchor="middle" x="10" y="-86.1259" font-family="Times New Roman,serif" font-size="9.00">x</text>
</g>
<!-- F -->
<g id="node5" class="node"><title>F</title>
<ellipse fill="lightblue" stroke="black" cx="34" cy="-15.5563" rx="15.6129" ry="15.6129"/>
<text text-anchor="middle" x="34" y="-13.3563" font-family="Times New Roman,serif" font-size="9.00">F</text>
</g>
<!-- x&#45;&gt;F -->
<g id="edge1" class="edge"><title>x&#45;&gt;F</title>
<path fill="none" stroke="red" stroke-width="0.518148" d="M12.7531,-79.2077C15.9713,-69.7182 21.4408,-53.5899 26.0244,-40.0742"/>
<polygon fill="red" stroke="red" stroke-width="0.518148" points="29.4078,-40.9953 29.3049,-30.401 22.7786,-38.7472 29.4078,-40.9953"/>
</g>
<!-- theta -->
<g id="node2" class="node"><title>theta</title>
<polygon fill="lightgray" stroke="black" points="131.5,-334.534 96.5,-334.534 96.5,-316.534 131.5,-316.534 131.5,-334.534"/>
<text text-anchor="middle" x="114" y="-323.334" font-family="Times New Roman,serif" font-size="9.00">theta</text>
</g>
<!-- dx -->
<g id="node3" class="node"><title>dx</title>
<polygon fill="lightgray" stroke="black" points="174.5,-334.534 149.5,-334.534 149.5,-316.534 174.5,-316.534 174.5,-334.534"/>
<text text-anchor="middle" x="162" y="-323.334" font-family="Times New Roman,serif" font-size="9.00">dx</text>
</g>
<!-- dtheta -->
<g id="node4" class="node"><title>dtheta</title>
<polygon fill="lightgray" stroke="black" points="78.5,-334.534 39.5,-334.534 39.5,-316.534 78.5,-316.534 78.5,-334.534"/>
<text text-anchor="middle" x="59" y="-323.334" font-family="Times New Roman,serif" font-size="9.00">dtheta</text>
</g>
<!-- 3446 -->
<g id="node8" class="node"><title>3446</title>
<ellipse fill="white" stroke="black" cx="59" cy="-255.785" rx="25" ry="25"/>
<text text-anchor="middle" x="59" y="-253.585" font-family="Times New Roman,serif" font-size="9.00">3446</text>
</g>
<!-- dtheta&#45;&gt;3446 -->
<g id="edge4" class="edge"><title>dtheta&#45;&gt;3446</title>
<path fill="none" stroke="green" stroke-width="0.512793" d="M59,-316.496C59,-310.061 59,-300.563 59,-291.027"/>
<polygon fill="green" stroke="green" stroke-width="0.512793" points="62.5001,-290.807 59,-280.807 55.5001,-290.807 62.5001,-290.807"/>
</g>
<!-- 355 -->
<g id="node6" class="node"><title>355</title>
<ellipse fill="white" stroke="black" cx="59" cy="-88.3259" rx="21.4286" ry="21.4286"/>
<text text-anchor="middle" x="59" y="-86.1259" font-family="Times New Roman,serif" font-size="9.00">355</text>
</g>
<!-- 355&#45;&gt;F -->
<g id="edge2" class="edge"><title>355&#45;&gt;F</title>
<path fill="none" stroke="green" stroke-width="0.29093" d="M52.1686,-67.9878C49.1435,-59.4243 45.5564,-49.2699 42.3719,-40.2554"/>
<polygon fill="green" stroke="green" stroke-width="0.29093" points="45.6301,-38.9707 38.999,-30.7075 39.0298,-41.3023 45.6301,-38.9707"/>
</g>
<!-- 1254 -->
<g id="node7" class="node"><title>1254</title>
<ellipse fill="white" stroke="black" cx="59" cy="-170.288" rx="25" ry="25"/>
<text text-anchor="middle" x="59" y="-168.088" font-family="Times New Roman,serif" font-size="9.00">1254</text>
</g>
<!-- 1254&#45;&gt;355 -->
<g id="edge3" class="edge"><title>1254&#45;&gt;355</title>
<path fill="none" stroke="green" stroke-width="0.606693" d="M59,-145.297C59,-137.34 59,-128.371 59,-119.982"/>
<polygon fill="green" stroke="green" stroke-width="0.606693" points="62.5001,-119.787 59,-109.787 55.5001,-119.787 62.5001,-119.787"/>
</g>
<!-- 3446&#45;&gt;1254 -->
<g id="edge5" class="edge"><title>3446&#45;&gt;1254</title>
<path fill="none" stroke="green" stroke-width="0.138905" d="M59,-230.634C59,-222.69 59,-213.706 59,-205.175"/>
<polygon fill="green" stroke="green" stroke-width="0.138905" points="62.5001,-205.096 59,-195.096 55.5001,-205.096 62.5001,-205.096"/>
</g>
</g>
</svg>
