<?xml version="1.0" encoding="UTF-8" standalone="no"?>
<!DOCTYPE svg PUBLIC "-//W3C//DTD SVG 1.1//EN"
 "http://www.w3.org/Graphics/SVG/1.1/DTD/svg11.dtd">
<!-- Generated by graphviz version 2.38.0 (20140413.2041)
 -->
<!-- Title: %3 Pages: 1 -->
<svg width="284pt" height="299pt"
 viewBox="0.00 0.00 284.08 299.46" xmlns="http://www.w3.org/2000/svg" xmlns:xlink="http://www.w3.org/1999/xlink">
<g id="graph0" class="graph" transform="scale(1 1) rotate(0) translate(4 295.463)">
<title>%3</title>
<polygon fill="white" stroke="none" points="-4,4 -4,-295.463 280.077,-295.463 280.077,4 -4,4"/>
<!-- x -->
<g id="node1" class="node"><title>x</title>
<polygon fill="lightgray" stroke="black" points="129.5,-218.886 109.5,-218.886 109.5,-200.886 129.5,-200.886 129.5,-218.886"/>
<text text-anchor="middle" x="119.5" y="-207.686" font-family="Times New Roman,serif" font-size="9.00">x</text>
</g>
<!-- F -->
<g id="node5" class="node"><title>F</title>
<ellipse fill="lightblue" stroke="black" cx="61.5" cy="-118.731" rx="15.6129" ry="15.6129"/>
<text text-anchor="middle" x="61.5" y="-116.531" font-family="Times New Roman,serif" font-size="9.00">F</text>
</g>
<!-- x&#45;&gt;F -->
<g id="edge4" class="edge"><title>x&#45;&gt;F</title>
<path fill="none" stroke="red" stroke-width="1.80725" d="M114.147,-200.658C105.335,-187.112 87.5087,-159.711 75.0522,-140.563"/>
<polygon fill="red" stroke="red" stroke-width="1.80725" points="77.9822,-138.649 69.5952,-132.175 72.1146,-142.466 77.9822,-138.649"/>
</g>
<!-- 24643 -->
<g id="node7" class="node"><title>24643</title>
<ellipse fill="none" stroke="black" cx="122.5" cy="-118.731" rx="27.6545" ry="27.6545"/>
<text text-anchor="middle" x="122.5" y="-116.531" font-family="Times New Roman,serif" font-size="9.00">24643</text>
</g>
<!-- x&#45;&gt;24643 -->
<g id="edge5" class="edge"><title>x&#45;&gt;24643</title>
<path fill="none" stroke="red" stroke-width="0.294418" d="M119.777,-200.658C120.115,-190.616 120.709,-172.957 121.256,-156.692"/>
<polygon fill="red" stroke="red" stroke-width="0.294418" points="124.768,-156.412 121.606,-146.3 117.772,-156.176 124.768,-156.412"/>
</g>
<!-- theta -->
<g id="node2" class="node"><title>theta</title>
<polygon fill="lightgray" stroke="black" points="229,-291.463 194,-291.463 194,-273.463 229,-273.463 229,-291.463"/>
<text text-anchor="middle" x="211.5" y="-280.263" font-family="Times New Roman,serif" font-size="9.00">theta</text>
</g>
<!-- 26940 -->
<g id="node9" class="node"><title>26940</title>
<ellipse fill="none" stroke="black" cx="175.5" cy="-209.886" rx="27.6545" ry="27.6545"/>
<text text-anchor="middle" x="175.5" y="-207.686" font-family="Times New Roman,serif" font-size="9.00">26940</text>
</g>
<!-- theta&#45;&gt;26940 -->
<g id="edge7" class="edge"><title>theta&#45;&gt;26940</title>
<path fill="none" stroke="red" stroke-width="0.121226" d="M207.37,-273.367C203.648,-266.069 197.917,-254.833 192.336,-243.892"/>
<polygon fill="red" stroke="red" stroke-width="0.121226" points="195.392,-242.181 187.73,-234.863 189.156,-245.362 195.392,-242.181"/>
</g>
<!-- 34215 -->
<g id="node10" class="node"><title>34215</title>
<ellipse fill="none" stroke="black" cx="248.5" cy="-209.886" rx="27.6545" ry="27.6545"/>
<text text-anchor="middle" x="248.5" y="-207.686" font-family="Times New Roman,serif" font-size="9.00">34215</text>
</g>
<!-- theta&#45;&gt;34215 -->
<g id="edge8" class="edge"><title>theta&#45;&gt;34215</title>
<path fill="none" stroke="green" stroke-width="0.211813" d="M215.744,-273.367C219.6,-266.012 225.552,-254.659 231.33,-243.638"/>
<polygon fill="green" stroke="green" stroke-width="0.211813" points="234.549,-245.034 236.093,-234.553 228.35,-241.784 234.549,-245.034"/>
</g>
<!-- dx -->
<g id="node3" class="node"><title>dx</title>
<polygon fill="lightgray" stroke="black" points="25,-218.886 0,-218.886 0,-200.886 25,-200.886 25,-218.886"/>
<text text-anchor="middle" x="12.5" y="-207.686" font-family="Times New Roman,serif" font-size="9.00">dx</text>
</g>
<!-- dx&#45;&gt;F -->
<g id="edge2" class="edge"><title>dx&#45;&gt;F</title>
<path fill="none" stroke="red" stroke-width="0.440301" d="M17.022,-200.658C24.3184,-187.383 38.9295,-160.798 49.4159,-141.718"/>
<polygon fill="red" stroke="red" stroke-width="0.440301" points="52.5732,-143.24 54.3225,-132.791 46.4386,-139.869 52.5732,-143.24"/>
</g>
<!-- dtheta -->
<g id="node4" class="node"><title>dtheta</title>
<polygon fill="lightgray" stroke="black" points="84,-291.463 45,-291.463 45,-273.463 84,-273.463 84,-291.463"/>
<text text-anchor="middle" x="64.5" y="-280.263" font-family="Times New Roman,serif" font-size="9.00">dtheta</text>
</g>
<!-- 375 -->
<g id="node6" class="node"><title>375</title>
<ellipse fill="white" stroke="black" cx="64.5" cy="-209.886" rx="21.4286" ry="21.4286"/>
<text text-anchor="middle" x="64.5" y="-207.686" font-family="Times New Roman,serif" font-size="9.00">375</text>
</g>
<!-- dtheta&#45;&gt;375 -->
<g id="edge3" class="edge"><title>dtheta&#45;&gt;375</title>
<path fill="none" stroke="green" stroke-width="0.899456" d="M64.5,-273.367C64.5,-265.47 64.5,-252.962 64.5,-241.206"/>
<polygon fill="green" stroke="green" stroke-width="0.899456" points="68.0001,-241.202 64.5,-231.202 61.0001,-241.202 68.0001,-241.202"/>
</g>
<!-- 375&#45;&gt;F -->
<g id="edge1" class="edge"><title>375&#45;&gt;F</title>
<path fill="none" stroke="green" stroke-width="0.830467" d="M63.8193,-188.655C63.38,-175.602 62.8056,-158.531 62.3383,-144.644"/>
<polygon fill="green" stroke="green" stroke-width="0.830467" points="65.8256,-144.204 61.9911,-134.327 58.8295,-144.439 65.8256,-144.204"/>
</g>
<!-- 24783 -->
<g id="node8" class="node"><title>24783</title>
<ellipse fill="none" stroke="black" cx="122.5" cy="-27.5772" rx="27.6545" ry="27.6545"/>
<text text-anchor="middle" x="122.5" y="-25.3772" font-family="Times New Roman,serif" font-size="9.00">24783</text>
</g>
<!-- 24643&#45;&gt;24783 -->
<g id="edge6" class="edge"><title>24643&#45;&gt;24783</title>
<path fill="none" stroke="green" stroke-width="0.964814" d="M122.5,-90.9823C122.5,-82.96 122.5,-74.0155 122.5,-65.4608"/>
<polygon fill="green" stroke="green" stroke-width="0.964814" points="126,-65.3075 122.5,-55.3075 119,-65.3076 126,-65.3075"/>
</g>
</g>
</svg>
