<?xml version="1.0" encoding="UTF-8" standalone="no"?>
<!DOCTYPE svg PUBLIC "-//W3C//DTD SVG 1.1//EN"
 "http://www.w3.org/Graphics/SVG/1.1/DTD/svg11.dtd">
<!-- Generated by graphviz version 2.38.0 (20140413.2041)
 -->
<!-- Title: %3 Pages: 1 -->
<svg width="174pt" height="250pt"
 viewBox="0.00 0.00 173.50 249.97" xmlns="http://www.w3.org/2000/svg" xmlns:xlink="http://www.w3.org/1999/xlink">
<g id="graph0" class="graph" transform="scale(1 1) rotate(0) translate(4 245.966)">
<title>%3</title>
<polygon fill="white" stroke="none" points="-4,4 -4,-245.966 169.5,-245.966 169.5,4 -4,4"/>
<!-- x -->
<g id="node1" class="node"><title>x</title>
<polygon fill="lightgray" stroke="black" points="20,-175.752 0,-175.752 0,-157.752 20,-157.752 20,-175.752"/>
<text text-anchor="middle" x="10" y="-164.552" font-family="Times New Roman,serif" font-size="9.00">x</text>
</g>
<!-- 707 -->
<g id="node6" class="node"><title>707</title>
<ellipse fill="white" stroke="black" cx="34" cy="-88.3259" rx="21.4286" ry="21.4286"/>
<text text-anchor="middle" x="34" y="-86.1259" font-family="Times New Roman,serif" font-size="9.00">707</text>
</g>
<!-- x&#45;&gt;707 -->
<g id="edge6" class="edge"><title>x&#45;&gt;707</title>
<path fill="none" stroke="red" stroke-width="0.34276" d="M12.5684,-157.573C15.4876,-148.277 20.4185,-132.575 24.815,-118.575"/>
<polygon fill="red" stroke="red" stroke-width="0.34276" points="28.2287,-119.386 27.8856,-108.797 21.5503,-117.289 28.2287,-119.386"/>
</g>
<!-- theta -->
<g id="node2" class="node"><title>theta</title>
<polygon fill="lightgray" stroke="black" points="108.5,-97.3259 73.5,-97.3259 73.5,-79.3259 108.5,-79.3259 108.5,-97.3259"/>
<text text-anchor="middle" x="91" y="-86.1259" font-family="Times New Roman,serif" font-size="9.00">theta</text>
</g>
<!-- F -->
<g id="node5" class="node"><title>F</title>
<ellipse fill="lightblue" stroke="black" cx="91" cy="-15.5563" rx="15.6129" ry="15.6129"/>
<text text-anchor="middle" x="91" y="-13.3563" font-family="Times New Roman,serif" font-size="9.00">F</text>
</g>
<!-- theta&#45;&gt;F -->
<g id="edge1" class="edge"><title>theta&#45;&gt;F</title>
<path fill="none" stroke="red" stroke-width="0.87606" d="M91,-79.2077C91,-69.9831 91,-54.4853 91,-41.212"/>
<polygon fill="red" stroke="red" stroke-width="0.87606" points="94.5001,-41.2064 91,-31.2064 87.5001,-41.2065 94.5001,-41.2064"/>
</g>
<!-- dx -->
<g id="node3" class="node"><title>dx</title>
<polygon fill="lightgray" stroke="black" points="71.5,-241.966 46.5,-241.966 46.5,-223.966 71.5,-223.966 71.5,-241.966"/>
<text text-anchor="middle" x="59" y="-230.766" font-family="Times New Roman,serif" font-size="9.00">dx</text>
</g>
<!-- 813 -->
<g id="node7" class="node"><title>813</title>
<ellipse fill="white" stroke="black" cx="59" cy="-166.752" rx="21.4286" ry="21.4286"/>
<text text-anchor="middle" x="59" y="-164.552" font-family="Times New Roman,serif" font-size="9.00">813</text>
</g>
<!-- dx&#45;&gt;813 -->
<g id="edge4" class="edge"><title>dx&#45;&gt;813</title>
<path fill="none" stroke="red" stroke-width="0.25678" d="M59,-223.833C59,-217.29 59,-207.661 59,-198.221"/>
<polygon fill="red" stroke="red" stroke-width="0.25678" points="62.5001,-198.208 59,-188.208 55.5001,-198.208 62.5001,-198.208"/>
</g>
<!-- dtheta -->
<g id="node4" class="node"><title>dtheta</title>
<polygon fill="lightgray" stroke="black" points="165.5,-97.3259 126.5,-97.3259 126.5,-79.3259 165.5,-79.3259 165.5,-97.3259"/>
<text text-anchor="middle" x="146" y="-86.1259" font-family="Times New Roman,serif" font-size="9.00">dtheta</text>
</g>
<!-- dtheta&#45;&gt;F -->
<g id="edge2" class="edge"><title>dtheta&#45;&gt;F</title>
<path fill="none" stroke="red" stroke-width="0.703251" d="M139.691,-79.2077C131.653,-68.865 117.486,-50.6361 106.499,-36.4987"/>
<polygon fill="red" stroke="red" stroke-width="0.703251" points="109.052,-34.08 100.152,-28.3319 103.525,-38.3755 109.052,-34.08"/>
</g>
<!-- 707&#45;&gt;F -->
<g id="edge3" class="edge"><title>707&#45;&gt;F</title>
<path fill="none" stroke="green" stroke-width="0.61658" d="M46.9342,-71.2672C55.31,-60.868 66.2733,-47.2563 75.1691,-36.2116"/>
<polygon fill="green" stroke="green" stroke-width="0.61658" points="77.9446,-38.3452 81.4916,-28.3617 72.493,-33.9543 77.9446,-38.3452"/>
</g>
<!-- 813&#45;&gt;707 -->
<g id="edge5" class="edge"><title>813&#45;&gt;707</title>
<path fill="none" stroke="green" stroke-width="0.225774" d="M52.6914,-146.467C49.9083,-137.958 46.5773,-127.775 43.5033,-118.378"/>
<polygon fill="green" stroke="green" stroke-width="0.225774" points="46.7422,-117.022 40.3065,-108.605 40.0891,-119.198 46.7422,-117.022"/>
</g>
</g>
</svg>
