<?xml version="1.0" encoding="UTF-8" standalone="no"?>
<!DOCTYPE svg PUBLIC "-//W3C//DTD SVG 1.1//EN"
 "http://www.w3.org/Graphics/SVG/1.1/DTD/svg11.dtd">
<!-- Generated by graphviz version 2.38.0 (20140413.2041)
 -->
<!-- Title: %3 Pages: 1 -->
<svg width="182pt" height="121pt"
 viewBox="0.00 0.00 181.50 121.40" xmlns="http://www.w3.org/2000/svg" xmlns:xlink="http://www.w3.org/1999/xlink">
<g id="graph0" class="graph" transform="scale(1 1) rotate(0) translate(4 117.397)">
<title>%3</title>
<polygon fill="white" stroke="none" points="-4,4 -4,-117.397 177.5,-117.397 177.5,4 -4,4"/>
<!-- x -->
<g id="node1" class="node"><title>x</title>
<polygon fill="lightgray" stroke="black" points="20,-113.397 0,-113.397 0,-95.397 20,-95.397 20,-113.397"/>
<text text-anchor="middle" x="10" y="-102.197" font-family="Times New Roman,serif" font-size="9.00">x</text>
</g>
<!-- dx -->
<g id="node2" class="node"><title>dx</title>
<polygon fill="lightgray" stroke="black" points="63.5,-113.397 38.5,-113.397 38.5,-95.397 63.5,-95.397 63.5,-113.397"/>
<text text-anchor="middle" x="51" y="-102.197" font-family="Times New Roman,serif" font-size="9.00">dx</text>
</g>
<!-- control -->
<g id="node5" class="node"><title>control</title>
<ellipse fill="lightblue" stroke="black" cx="76" cy="-29.6985" rx="29.8983" ry="29.8983"/>
<text text-anchor="middle" x="76" y="-27.4985" font-family="Times New Roman,serif" font-size="9.00">control</text>
</g>
<!-- dx&#45;&gt;control -->
<g id="edge2" class="edge"><title>dx&#45;&gt;control</title>
<path fill="none" stroke="green" stroke-width="0.522835" d="M53.771,-95.3392C56.1264,-88.4896 59.6881,-78.1324 63.2746,-67.7032"/>
<polygon fill="green" stroke="green" stroke-width="0.522835" points="66.5991,-68.7984 66.5413,-58.2037 59.9796,-66.522 66.5991,-68.7984"/>
</g>
<!-- theta -->
<g id="node3" class="node"><title>theta</title>
<polygon fill="lightgray" stroke="black" points="173.5,-113.397 138.5,-113.397 138.5,-95.397 173.5,-95.397 173.5,-113.397"/>
<text text-anchor="middle" x="156" y="-102.197" font-family="Times New Roman,serif" font-size="9.00">theta</text>
</g>
<!-- dtheta -->
<g id="node4" class="node"><title>dtheta</title>
<polygon fill="lightgray" stroke="black" points="120.5,-113.397 81.5,-113.397 81.5,-95.397 120.5,-95.397 120.5,-113.397"/>
<text text-anchor="middle" x="101" y="-102.197" font-family="Times New Roman,serif" font-size="9.00">dtheta</text>
</g>
<!-- dtheta&#45;&gt;control -->
<g id="edge1" class="edge"><title>dtheta&#45;&gt;control</title>
<path fill="none" stroke="green" stroke-width="0.524676" d="M98.229,-95.3392C95.8736,-88.4896 92.3119,-78.1324 88.7254,-67.7032"/>
<polygon fill="green" stroke="green" stroke-width="0.524676" points="92.0204,-66.522 85.4587,-58.2037 85.4009,-68.7984 92.0204,-66.522"/>
</g>
</g>
</svg>
