<?xml version="1.0" encoding="UTF-8" standalone="no"?>
<!DOCTYPE svg PUBLIC "-//W3C//DTD SVG 1.1//EN"
 "http://www.w3.org/Graphics/SVG/1.1/DTD/svg11.dtd">
<!-- Generated by graphviz version 2.38.0 (20140413.2041)
 -->
<!-- Title: %3 Pages: 1 -->
<svg width="231pt" height="105pt"
 viewBox="0.00 0.00 230.56 104.81" xmlns="http://www.w3.org/2000/svg" xmlns:xlink="http://www.w3.org/1999/xlink">
<g id="graph0" class="graph" transform="scale(1 1) rotate(0) translate(4 100.811)">
<title>%3</title>
<polygon fill="white" stroke="none" points="-4,4 -4,-100.811 226.556,-100.811 226.556,4 -4,4"/>
<!-- x -->
<g id="node1" class="node"><title>x</title>
<polygon fill="lightgray" stroke="black" points="20,-90.2548 0,-90.2548 0,-72.2548 20,-72.2548 20,-90.2548"/>
<text text-anchor="middle" x="10" y="-79.0548" font-family="Times New Roman,serif" font-size="9.00">x</text>
</g>
<!-- 1 -->
<g id="node6" class="node"><title>1</title>
<ellipse fill="none" stroke="black" cx="80" cy="-14.8492" rx="14.7" ry="14.7"/>
<text text-anchor="middle" x="80" y="-12.6492" font-family="Times New Roman,serif" font-size="9.00">1</text>
</g>
<!-- x&#45;&gt;1 -->
<g id="edge2" class="edge"><title>x&#45;&gt;1</title>
<path fill="none" stroke="green" stroke-width="0.390473" d="M18.8655,-72.0978C29.5677,-62.251 47.8441,-45.4352 61.6329,-32.7485"/>
<polygon fill="green" stroke="green" stroke-width="0.390473" points="64.1525,-35.1863 69.1417,-25.8397 59.4128,-30.035 64.1525,-35.1863"/>
</g>
<!-- theta -->
<g id="node2" class="node"><title>theta</title>
<polygon fill="lightgray" stroke="black" points="73.5,-90.2548 38.5,-90.2548 38.5,-72.2548 73.5,-72.2548 73.5,-90.2548"/>
<text text-anchor="middle" x="56" y="-79.0548" font-family="Times New Roman,serif" font-size="9.00">theta</text>
</g>
<!-- theta&#45;&gt;1 -->
<g id="edge3" class="edge"><title>theta&#45;&gt;1</title>
<path fill="none" stroke="red" stroke-width="0.173883" d="M59.0396,-72.0978C62.1614,-63.7202 67.163,-50.2982 71.4975,-38.6664"/>
<polygon fill="red" stroke="red" stroke-width="0.173883" points="74.8586,-39.6698 75.0708,-29.077 68.2992,-37.2254 74.8586,-39.6698"/>
</g>
<!-- dx -->
<g id="node3" class="node"><title>dx</title>
<polygon fill="lightgray" stroke="black" points="116.5,-90.2548 91.5,-90.2548 91.5,-72.2548 116.5,-72.2548 116.5,-90.2548"/>
<text text-anchor="middle" x="104" y="-79.0548" font-family="Times New Roman,serif" font-size="9.00">dx</text>
</g>
<!-- dx&#45;&gt;1 -->
<g id="edge4" class="edge"><title>dx&#45;&gt;1</title>
<path fill="none" stroke="green" stroke-width="0.256972" d="M100.96,-72.0978C97.8386,-63.7202 92.837,-50.2982 88.5025,-38.6664"/>
<polygon fill="green" stroke="green" stroke-width="0.256972" points="91.7008,-37.2254 84.9292,-29.077 85.1414,-39.6698 91.7008,-37.2254"/>
</g>
<!-- dtheta -->
<g id="node4" class="node"><title>dtheta</title>
<polygon fill="lightgray" stroke="black" points="173.5,-90.2548 134.5,-90.2548 134.5,-72.2548 173.5,-72.2548 173.5,-90.2548"/>
<text text-anchor="middle" x="154" y="-79.0548" font-family="Times New Roman,serif" font-size="9.00">dtheta</text>
</g>
<!-- dtheta&#45;&gt;1 -->
<g id="edge1" class="edge"><title>dtheta&#45;&gt;1</title>
<path fill="none" stroke="green" stroke-width="0.153303" d="M144.628,-72.0978C133.184,-62.1378 113.548,-45.0477 98.9159,-32.3126"/>
<polygon fill="green" stroke="green" stroke-width="0.153303" points="100.82,-29.3296 90.9787,-25.4045 96.2241,-34.6098 100.82,-29.3296"/>
</g>
<!-- F -->
<g id="node5" class="node"><title>F</title>
<ellipse fill="lightblue" stroke="black" cx="207" cy="-81.2548" rx="15.6129" ry="15.6129"/>
<text text-anchor="middle" x="207" y="-79.0548" font-family="Times New Roman,serif" font-size="9.00">F</text>
</g>
</g>
</svg>
