<?xml version="1.0" encoding="UTF-8" standalone="no"?>
<!DOCTYPE svg PUBLIC "-//W3C//DTD SVG 1.1//EN"
 "http://www.w3.org/Graphics/SVG/1.1/DTD/svg11.dtd">
<!-- Generated by graphviz version 2.38.0 (20140413.2041)
 -->
<!-- Title: %3 Pages: 1 -->
<svg width="185pt" height="183pt"
 viewBox="0.00 0.00 185.21 182.85" xmlns="http://www.w3.org/2000/svg" xmlns:xlink="http://www.w3.org/1999/xlink">
<g id="graph0" class="graph" transform="scale(1 1) rotate(0) translate(4 178.853)">
<title>%3</title>
<polygon fill="white" stroke="none" points="-4,4 -4,-178.853 181.213,-178.853 181.213,4 -4,4"/>
<!-- x -->
<g id="node1" class="node"><title>x</title>
<polygon fill="lightgray" stroke="black" points="20,-174.853 0,-174.853 0,-156.853 20,-156.853 20,-174.853"/>
<text text-anchor="middle" x="10" y="-163.653" font-family="Times New Roman,serif" font-size="9.00">x</text>
</g>
<!-- F -->
<g id="node5" class="node"><title>F</title>
<ellipse fill="lightblue" stroke="black" cx="76" cy="-99.6396" rx="15.6129" ry="15.6129"/>
<text text-anchor="middle" x="76" y="-97.4396" font-family="Times New Roman,serif" font-size="9.00">F</text>
</g>
<!-- x&#45;&gt;F -->
<g id="edge6" class="edge"><title>x&#45;&gt;F</title>
<path fill="none" stroke="green" stroke-width="0.331704" d="M18.3589,-156.72C28.2404,-147.106 44.9702,-130.829 57.8684,-118.28"/>
<polygon fill="green" stroke="green" stroke-width="0.331704" points="60.5821,-120.523 65.3088,-111.041 55.7007,-115.506 60.5821,-120.523"/>
</g>
<!-- dx -->
<g id="node2" class="node"><title>dx</title>
<polygon fill="lightgray" stroke="black" points="63.5,-174.853 38.5,-174.853 38.5,-156.853 63.5,-156.853 63.5,-174.853"/>
<text text-anchor="middle" x="51" y="-163.653" font-family="Times New Roman,serif" font-size="9.00">dx</text>
</g>
<!-- dx&#45;&gt;F -->
<g id="edge3" class="edge"><title>dx&#45;&gt;F</title>
<path fill="none" stroke="green" stroke-width="0.361058" d="M54.1663,-156.72C57.3775,-148.472 62.4982,-135.319 66.9736,-123.824"/>
<polygon fill="green" stroke="green" stroke-width="0.361058" points="70.3096,-124.903 70.6762,-114.314 63.7865,-122.363 70.3096,-124.903"/>
</g>
<!-- theta -->
<g id="node3" class="node"><title>theta</title>
<polygon fill="lightgray" stroke="black" points="173.5,-174.853 138.5,-174.853 138.5,-156.853 173.5,-156.853 173.5,-174.853"/>
<text text-anchor="middle" x="156" y="-163.653" font-family="Times New Roman,serif" font-size="9.00">theta</text>
</g>
<!-- theta&#45;&gt;F -->
<g id="edge2" class="edge"><title>theta&#45;&gt;F</title>
<path fill="none" stroke="green" stroke-width="0.604691" d="M145.868,-156.72C133.381,-146.697 111.871,-129.432 96.0076,-116.699"/>
<polygon fill="green" stroke="green" stroke-width="0.604691" points="97.8583,-113.696 87.8689,-110.166 93.4765,-119.155 97.8583,-113.696"/>
</g>
<!-- 393 -->
<g id="node6" class="node"><title>393</title>
<ellipse fill="none" stroke="black" cx="156" cy="-99.6396" rx="21.4286" ry="21.4286"/>
<text text-anchor="middle" x="156" y="-97.4396" font-family="Times New Roman,serif" font-size="9.00">393</text>
</g>
<!-- theta&#45;&gt;393 -->
<g id="edge4" class="edge"><title>theta&#45;&gt;393</title>
<path fill="none" stroke="green" stroke-width="0.433628" d="M156,-156.72C156,-150.177 156,-140.548 156,-131.109"/>
<polygon fill="green" stroke="green" stroke-width="0.433628" points="159.5,-131.095 156,-121.095 152.5,-131.095 159.5,-131.095"/>
</g>
<!-- dtheta -->
<g id="node4" class="node"><title>dtheta</title>
<polygon fill="lightgray" stroke="black" points="120.5,-174.853 81.5,-174.853 81.5,-156.853 120.5,-156.853 120.5,-174.853"/>
<text text-anchor="middle" x="101" y="-163.653" font-family="Times New Roman,serif" font-size="9.00">dtheta</text>
</g>
<!-- dtheta&#45;&gt;F -->
<g id="edge1" class="edge"><title>dtheta&#45;&gt;F</title>
<path fill="none" stroke="green" stroke-width="0.299949" d="M97.8337,-156.72C94.6225,-148.472 89.5018,-135.319 85.0264,-123.824"/>
<polygon fill="green" stroke="green" stroke-width="0.299949" points="88.2135,-122.363 81.3238,-114.314 81.6904,-124.903 88.2135,-122.363"/>
</g>
<!-- 193 -->
<g id="node7" class="node"><title>193</title>
<ellipse fill="none" stroke="black" cx="156" cy="-21.2132" rx="21.4286" ry="21.4286"/>
<text text-anchor="middle" x="156" y="-19.0132" font-family="Times New Roman,serif" font-size="9.00">193</text>
</g>
<!-- 393&#45;&gt;193 -->
<g id="edge5" class="edge"><title>393&#45;&gt;193</title>
<path fill="none" stroke="green" stroke-width="0.665723" d="M156,-78.1587C156,-70.3001 156,-61.1558 156,-52.5655"/>
<polygon fill="green" stroke="green" stroke-width="0.665723" points="159.5,-52.4856 156,-42.4856 152.5,-52.4856 159.5,-52.4856"/>
</g>
</g>
</svg>
