<?xml version="1.0" encoding="UTF-8" standalone="no"?>
<!DOCTYPE svg PUBLIC "-//W3C//DTD SVG 1.1//EN"
 "http://www.w3.org/Graphics/SVG/1.1/DTD/svg11.dtd">
<!-- Generated by graphviz version 2.38.0 (20140413.2041)
 -->
<!-- Title: %3 Pages: 1 -->
<svg width="183pt" height="104pt"
 viewBox="0.00 0.00 183.21 104.43" xmlns="http://www.w3.org/2000/svg" xmlns:xlink="http://www.w3.org/1999/xlink">
<g id="graph0" class="graph" transform="scale(1 1) rotate(0) translate(4 100.426)">
<title>%3</title>
<polygon fill="white" stroke="none" points="-4,4 -4,-100.426 179.213,-100.426 179.213,4 -4,4"/>
<!-- x -->
<g id="node1" class="node"><title>x</title>
<polygon fill="lightgray" stroke="black" points="20,-96.4264 0,-96.4264 0,-78.4264 20,-78.4264 20,-96.4264"/>
<text text-anchor="middle" x="10" y="-85.2264" font-family="Times New Roman,serif" font-size="9.00">x</text>
</g>
<!-- F -->
<g id="node5" class="node"><title>F</title>
<ellipse fill="lightblue" stroke="black" cx="75" cy="-21.2132" rx="15.6129" ry="15.6129"/>
<text text-anchor="middle" x="75" y="-19.0132" font-family="Times New Roman,serif" font-size="9.00">F</text>
</g>
<!-- x&#45;&gt;F -->
<g id="edge5" class="edge"><title>x&#45;&gt;F</title>
<path fill="none" stroke="green" stroke-width="0.337062" d="M18.2323,-78.2938C27.8508,-68.7916 44.0581,-52.7806 56.6985,-40.2931"/>
<polygon fill="green" stroke="green" stroke-width="0.337062" points="59.363,-42.5808 64.0173,-33.063 54.4435,-37.601 59.363,-42.5808"/>
</g>
<!-- dx -->
<g id="node2" class="node"><title>dx</title>
<polygon fill="lightgray" stroke="black" points="63.5,-96.4264 38.5,-96.4264 38.5,-78.4264 63.5,-78.4264 63.5,-96.4264"/>
<text text-anchor="middle" x="51" y="-85.2264" font-family="Times New Roman,serif" font-size="9.00">dx</text>
</g>
<!-- dx&#45;&gt;F -->
<g id="edge3" class="edge"><title>dx&#45;&gt;F</title>
<path fill="none" stroke="green" stroke-width="0.363998" d="M54.0396,-78.2938C57.0834,-70.15 61.9141,-57.2252 66.1712,-45.8352"/>
<polygon fill="green" stroke="green" stroke-width="0.363998" points="69.4827,-46.9721 69.7052,-36.3796 62.9257,-44.5213 69.4827,-46.9721"/>
</g>
<!-- theta -->
<g id="node3" class="node"><title>theta</title>
<polygon fill="lightgray" stroke="black" points="116.5,-96.4264 81.5,-96.4264 81.5,-78.4264 116.5,-78.4264 116.5,-96.4264"/>
<text text-anchor="middle" x="99" y="-85.2264" font-family="Times New Roman,serif" font-size="9.00">theta</text>
</g>
<!-- theta&#45;&gt;F -->
<g id="edge2" class="edge"><title>theta&#45;&gt;F</title>
<path fill="none" stroke="green" stroke-width="1.03219" d="M95.9604,-78.2938C92.9166,-70.15 88.0859,-57.2252 83.8288,-45.8352"/>
<polygon fill="green" stroke="green" stroke-width="1.03219" points="87.0743,-44.5213 80.2948,-36.3796 80.5173,-46.9721 87.0743,-44.5213"/>
</g>
<!-- dtheta -->
<g id="node4" class="node"><title>dtheta</title>
<polygon fill="lightgray" stroke="black" points="173.5,-96.4264 134.5,-96.4264 134.5,-78.4264 173.5,-78.4264 173.5,-96.4264"/>
<text text-anchor="middle" x="154" y="-85.2264" font-family="Times New Roman,serif" font-size="9.00">dtheta</text>
</g>
<!-- dtheta&#45;&gt;F -->
<g id="edge1" class="edge"><title>dtheta&#45;&gt;F</title>
<path fill="none" stroke="green" stroke-width="0.255409" d="M143.995,-78.2938C131.663,-68.2707 110.422,-51.0053 94.7575,-38.2726"/>
<polygon fill="green" stroke="green" stroke-width="0.255409" points="96.688,-35.3314 86.7205,-31.7399 92.2728,-40.7634 96.688,-35.3314"/>
</g>
<!-- 319 -->
<g id="node6" class="node"><title>319</title>
<ellipse fill="none" stroke="black" cx="154" cy="-21.2132" rx="21.4286" ry="21.4286"/>
<text text-anchor="middle" x="154" y="-19.0132" font-family="Times New Roman,serif" font-size="9.00">319</text>
</g>
<!-- dtheta&#45;&gt;319 -->
<g id="edge4" class="edge"><title>dtheta&#45;&gt;319</title>
<path fill="none" stroke="green" stroke-width="0.159758" d="M154,-78.2938C154,-71.7509 154,-62.122 154,-52.6823"/>
<polygon fill="green" stroke="green" stroke-width="0.159758" points="157.5,-52.6685 154,-42.6686 150.5,-52.6686 157.5,-52.6685"/>
</g>
</g>
</svg>
