<?xml version="1.0" encoding="UTF-8" standalone="no"?>
<!DOCTYPE svg PUBLIC "-//W3C//DTD SVG 1.1//EN"
 "http://www.w3.org/Graphics/SVG/1.1/DTD/svg11.dtd">
<!-- Generated by graphviz version 2.38.0 (20140413.2041)
 -->
<!-- Title: %3 Pages: 1 -->
<svg width="275pt" height="214pt"
 viewBox="0.00 0.00 274.75 214.35" xmlns="http://www.w3.org/2000/svg" xmlns:xlink="http://www.w3.org/1999/xlink">
<g id="graph0" class="graph" transform="scale(1 1) rotate(0) translate(4 210.35)">
<title>%3</title>
<polygon fill="white" stroke="none" points="-4,4 -4,-210.35 270.749,-210.35 270.749,4 -4,4"/>
<!-- x -->
<g id="node1" class="node"><title>x</title>
<polygon fill="lightgray" stroke="black" points="20,-194.137 0,-194.137 0,-176.137 20,-176.137 20,-194.137"/>
<text text-anchor="middle" x="10" y="-182.937" font-family="Times New Roman,serif" font-size="9.00">x</text>
</g>
<!-- F -->
<g id="node5" class="node"><title>F</title>
<ellipse fill="lightblue" stroke="black" cx="58" cy="-103.175" rx="15.6129" ry="15.6129"/>
<text text-anchor="middle" x="58" y="-100.975" font-family="Times New Roman,serif" font-size="9.00">F</text>
</g>
<!-- x&#45;&gt;F -->
<g id="edge6" class="edge"><title>x&#45;&gt;F</title>
<path fill="none" stroke="red" stroke-width="0.353729" d="M14.9561,-175.881C21.9642,-164.206 35.0186,-142.459 44.9207,-125.964"/>
<polygon fill="red" stroke="red" stroke-width="0.353729" points="48.1711,-127.349 50.3171,-116.974 42.1694,-123.746 48.1711,-127.349"/>
</g>
<!-- theta -->
<g id="node2" class="node"><title>theta</title>
<polygon fill="lightgray" stroke="black" points="73.5,-194.137 38.5,-194.137 38.5,-176.137 73.5,-176.137 73.5,-194.137"/>
<text text-anchor="middle" x="56" y="-182.937" font-family="Times New Roman,serif" font-size="9.00">theta</text>
</g>
<!-- theta&#45;&gt;F -->
<g id="edge3" class="edge"><title>theta&#45;&gt;F</title>
<path fill="none" stroke="red" stroke-width="0.590354" d="M56.2065,-175.881C56.479,-164.988 56.9708,-145.325 57.3706,-129.341"/>
<polygon fill="red" stroke="red" stroke-width="0.590354" points="60.8776,-129.101 57.6288,-119.016 53.8798,-128.926 60.8776,-129.101"/>
</g>
<!-- dx -->
<g id="node3" class="node"><title>dx</title>
<polygon fill="lightgray" stroke="black" points="116.5,-194.137 91.5,-194.137 91.5,-176.137 116.5,-176.137 116.5,-194.137"/>
<text text-anchor="middle" x="104" y="-182.937" font-family="Times New Roman,serif" font-size="9.00">dx</text>
</g>
<!-- dx&#45;&gt;F -->
<g id="edge9" class="edge"><title>dx&#45;&gt;F</title>
<path fill="none" stroke="red" stroke-width="0.161617" d="M99.2504,-175.881C92.5343,-164.206 80.0238,-142.459 70.5343,-125.964"/>
<polygon fill="red" stroke="red" stroke-width="0.161617" points="73.3832,-123.897 65.3628,-116.974 67.3155,-127.387 73.3832,-123.897"/>
</g>
<!-- dtheta -->
<g id="node4" class="node"><title>dtheta</title>
<polygon fill="lightgray" stroke="black" points="173.5,-194.137 134.5,-194.137 134.5,-176.137 173.5,-176.137 173.5,-194.137"/>
<text text-anchor="middle" x="154" y="-182.937" font-family="Times New Roman,serif" font-size="9.00">dtheta</text>
</g>
<!-- dtheta&#45;&gt;F -->
<g id="edge2" class="edge"><title>dtheta&#45;&gt;F</title>
<path fill="none" stroke="red" stroke-width="0.458372" d="M144.088,-175.881C128.411,-162.823 97.6048,-137.163 77.4142,-120.346"/>
<polygon fill="red" stroke="red" stroke-width="0.458372" points="79.4097,-117.453 69.486,-113.742 74.9297,-122.832 79.4097,-117.453"/>
</g>
<!-- 245 -->
<g id="node6" class="node"><title>245</title>
<ellipse fill="none" stroke="black" cx="178" cy="-21.2132" rx="21.4286" ry="21.4286"/>
<text text-anchor="middle" x="178" y="-19.0132" font-family="Times New Roman,serif" font-size="9.00">245</text>
</g>
<!-- dtheta&#45;&gt;245 -->
<g id="edge1" class="edge"><title>dtheta&#45;&gt;245</title>
<path fill="none" stroke="red" stroke-width="0.67028" d="M151.92,-176.027C147.673,-158.106 139.123,-113.913 148,-78.4264 150.658,-67.8023 155.746,-56.9885 160.988,-47.7206"/>
<polygon fill="red" stroke="red" stroke-width="0.67028" points="164.057,-49.4087 166.197,-39.0323 158.053,-45.8094 164.057,-49.4087"/>
</g>
<!-- 765 -->
<g id="node7" class="node"><title>765</title>
<ellipse fill="none" stroke="black" cx="178" cy="-103.175" rx="21.4286" ry="21.4286"/>
<text text-anchor="middle" x="178" y="-100.975" font-family="Times New Roman,serif" font-size="9.00">765</text>
</g>
<!-- dtheta&#45;&gt;765 -->
<g id="edge4" class="edge"><title>dtheta&#45;&gt;765</title>
<path fill="none" stroke="red" stroke-width="0.247699" d="M156.478,-175.881C159.456,-165.96 164.616,-148.766 169.138,-133.701"/>
<polygon fill="red" stroke="red" stroke-width="0.247699" points="172.609,-134.312 172.131,-123.728 165.904,-132.3 172.609,-134.312"/>
</g>
<!-- 765&#45;&gt;245 -->
<g id="edge5" class="edge"><title>765&#45;&gt;245</title>
<path fill="none" stroke="green" stroke-width="0.172935" d="M178,-81.583C178,-72.7476 178,-62.2453 178,-52.5482"/>
<polygon fill="green" stroke="green" stroke-width="0.172935" points="181.5,-52.4588 178,-42.4588 174.5,-52.4588 181.5,-52.4588"/>
</g>
<!-- 952 -->
<g id="node8" class="node"><title>952</title>
<ellipse fill="none" stroke="black" cx="242" cy="-185.137" rx="21.4286" ry="21.4286"/>
<text text-anchor="middle" x="242" y="-182.937" font-family="Times New Roman,serif" font-size="9.00">952</text>
</g>
<!-- 1039 -->
<g id="node9" class="node"><title>1039</title>
<ellipse fill="none" stroke="black" cx="242" cy="-103.175" rx="25" ry="25"/>
<text text-anchor="middle" x="242" y="-100.975" font-family="Times New Roman,serif" font-size="9.00">1039</text>
</g>
<!-- 952&#45;&gt;1039 -->
<g id="edge7" class="edge"><title>952&#45;&gt;1039</title>
<path fill="none" stroke="green" stroke-width="0.205577" d="M242,-163.545C242,-155.847 242,-146.883 242,-138.29"/>
<polygon fill="green" stroke="green" stroke-width="0.205577" points="245.5,-138.1 242,-128.1 238.5,-138.1 245.5,-138.1"/>
</g>
<!-- 1039&#45;&gt;245 -->
<g id="edge8" class="edge"><title>1039&#45;&gt;245</title>
<path fill="none" stroke="red" stroke-width="0.367488" d="M226.833,-83.2253C218.028,-72.225 206.847,-58.2554 197.406,-46.4598"/>
<polygon fill="red" stroke="red" stroke-width="0.367488" points="199.88,-43.9487 190.898,-38.3285 194.415,-48.3229 199.88,-43.9487"/>
</g>
</g>
</svg>
